#N canvas 1522 167 484 631 10;
#X obj 100 205 *;
#X obj 185 177 t b f;
#X obj 169 205 *;
#X obj 169 98 tgl 20 0 empty empty G 22 7 0 12 -4034 -1 -1 0 1;
#X obj 100 97 tgl 20 0 empty empty D 22 7 0 12 -4034 -1 -1 0 1;
#X obj 100 236 != 1;
#X obj 169 234 != 1;
#X obj 195 312 t b f;
#X obj 185 341 *;
#X obj 105 307 t b f;
#X obj 103 336 *;
#X obj 100 371 != 1;
#X obj 178 373 != 1;
#X obj 110 173 t b f;
#X obj 181 150 != 1;
#X obj 144 274 t b b;
#X obj 136 413 f;
#X obj 180 416 f;
#X obj 69 267 t b f;
#X obj 204 272 t b f;
#X obj 136 449 tgl 20 0 empty empty Q 22 7 0 12 -260097 -1 -1 0 1;
#X obj 180 449 tgl 20 0 empty empty Q! 22 7 0 12 -260097 -1 -1 0 1
;
#X obj 374 97 tgl 20 0 empty empty G 22 7 0 12 -4034 -1 -1 0 1;
#X obj 293 96 tgl 20 0 empty empty D 22 7 0 12 -4034 -1 -1 0 1;
#X obj 293 448 tgl 20 0 empty empty Q 22 7 0 12 -260097 -1 -1 0 1;
#X obj 322 200 spigot;
#X obj 293 270 f;
#X obj 293 141 t b f;
#X obj 324 177 f;
#X obj 374 141 t b b f;
#X text 129 65 <Real>;
#X text 321 67 <Simple>;
#X text 24 19 D flip-flop;
#X connect 0 0 5 0;
#X connect 1 0 2 0;
#X connect 1 1 2 1;
#X connect 2 0 6 0;
#X connect 3 0 13 0;
#X connect 3 0 2 0;
#X connect 4 0 0 0;
#X connect 4 0 14 0;
#X connect 5 0 18 0;
#X connect 6 0 19 0;
#X connect 7 0 8 0;
#X connect 7 1 8 1;
#X connect 8 0 12 0;
#X connect 9 0 10 0;
#X connect 9 1 10 1;
#X connect 10 0 11 0;
#X connect 11 0 16 1;
#X connect 12 0 17 1;
#X connect 13 0 0 0;
#X connect 13 1 0 1;
#X connect 14 0 1 0;
#X connect 15 0 16 0;
#X connect 15 1 17 0;
#X connect 16 0 8 0;
#X connect 16 0 20 0;
#X connect 17 0 10 0;
#X connect 17 0 21 0;
#X connect 18 0 15 0;
#X connect 18 1 9 0;
#X connect 19 0 15 0;
#X connect 19 1 7 0;
#X connect 22 0 29 0;
#X connect 23 0 27 0;
#X connect 25 0 26 1;
#X connect 26 0 24 0;
#X connect 27 0 26 0;
#X connect 27 1 28 0;
#X connect 28 0 25 0;
#X connect 29 0 26 0;
#X connect 29 1 28 0;
#X connect 29 2 25 1;
