#N canvas 1522 167 1040 800 10;
#X text 151 56 <Real>;
#X text 663 64 <Simple>;
#X text 24 19 JK flip-flop;
#X obj 58 314 t b f;
#X obj 33 288 *;
#X obj 47 254 t b f;
#X obj 114 259 t b f;
#X obj 33 109 tgl 20 0 empty empty J 22 7 0 12 -4034 -1 -1 0 1;
#X obj 88 169 != 1;
#X obj 170 482 *;
#X obj 255 454 t b f;
#X obj 239 482 *;
#X obj 239 395 tgl 15 0 empty empty G 17 7 0 10 -262144 -1 -1 0 1;
#X obj 170 396 tgl 15 0 empty empty D 17 7 0 10 -262144 -1 -1 0 1;
#X obj 170 508 != 1;
#X obj 239 506 != 1;
#X obj 265 589 t b f;
#X obj 255 618 *;
#X obj 175 584 t b f;
#X obj 173 613 *;
#X obj 170 648 != 1;
#X obj 248 650 != 1;
#X obj 183 452 t b f;
#X obj 251 427 != 1;
#X obj 214 551 t b b;
#X obj 206 690 f;
#X obj 250 693 f;
#X obj 139 544 t b f;
#X obj 274 549 t b f;
#X obj 357 484 *;
#X obj 442 456 t b f;
#X obj 426 484 *;
#X obj 426 399 tgl 15 0 empty empty G 17 7 0 10 -262144 -1 -1 0 1;
#X obj 357 398 tgl 15 0 empty empty D 17 7 0 10 -262144 -1 -1 0 1;
#X obj 357 510 != 1;
#X obj 426 508 != 1;
#X obj 452 591 t b f;
#X obj 442 620 *;
#X obj 362 586 t b f;
#X obj 360 615 *;
#X obj 357 650 != 1;
#X obj 435 652 != 1;
#X obj 369 456 t b f;
#X obj 438 429 != 1;
#X obj 401 553 t b b;
#X obj 393 692 f;
#X obj 437 695 f;
#X obj 326 546 t b f;
#X obj 461 551 t b f;
#X obj 393 747 tgl 20 0 empty empty Q 22 7 0 12 -260097 -1 -1 0 1;
#X obj 437 748 tgl 20 0 empty empty Q! 22 7 0 12 -260097 -1 -1 0 1
;
#X obj 266 111 bng 20 250 50 0 empty empty CLK 22 7 0 12 -204786 -1
-1;
#X obj 356 373 != 1;
#X msg 290 245 1;
#X msg 326 244 0;
#X obj 164 210 f;
#X obj 213 210 f;
#X obj 290 321 t f f;
#X obj 266 169 t b b b b;
#X obj 88 110 tgl 20 0 empty empty K 22 7 0 12 -4034 -1 -1 0 1;
#X obj 88 289 *;
#X obj 33 337 != 1;
#X obj 70 337 != 1;
#X obj 33 384 *;
#X obj 69 361 t b f;
#X obj 33 407 != 1;
#X obj 563 317 t b f;
#X obj 538 291 *;
#X obj 552 257 t b f;
#X obj 619 262 t b f;
#X obj 538 112 tgl 20 0 empty empty J 22 7 0 12 -4034 -1 -1 0 1;
#X obj 593 172 != 1;
#X obj 746 401 tgl 15 0 empty empty G 17 7 0 10 -262144 -1 -1 0 1;
#X obj 665 402 tgl 15 0 empty empty D 17 7 0 10 -262144 -1 -1 0 1;
#X obj 931 404 tgl 15 0 empty empty G 17 7 0 10 -262144 -1 -1 0 1;
#X obj 850 404 tgl 15 0 empty empty D 17 7 0 10 -262144 -1 -1 0 1;
#X obj 898 750 tgl 20 0 empty empty Q 22 7 0 12 -260097 -1 -1 0 1;
#X obj 942 751 tgl 20 0 empty empty Q! 22 7 0 12 -260097 -1 -1 0 1
;
#X obj 771 114 bng 20 250 50 0 empty empty CLK 22 7 0 12 -204786 -1
-1;
#X obj 861 376 != 1;
#X msg 795 248 1;
#X msg 831 247 0;
#X obj 669 213 f;
#X obj 718 213 f;
#X obj 795 324 t f f;
#X obj 771 172 t b b b b;
#X obj 593 113 tgl 20 0 empty empty K 22 7 0 12 -4034 -1 -1 0 1;
#X obj 593 292 *;
#X obj 538 340 != 1;
#X obj 575 340 != 1;
#X obj 538 387 *;
#X obj 574 364 t b f;
#X obj 538 410 != 1;
#X obj 694 555 spigot;
#X obj 665 625 f;
#X obj 665 496 t b f;
#X obj 696 532 f;
#X obj 746 496 t b b f;
#X obj 879 557 spigot;
#X obj 850 627 f;
#X obj 850 498 t b f;
#X obj 881 534 f;
#X obj 931 498 t b b f;
#X obj 886 626 != 1;
#X obj 132 134 loadbang;
#X msg 132 156 1;
#X obj 132 179 t f f;
#X obj 639 137 loadbang;
#X msg 639 159 1;
#X obj 639 182 t f f;
#X connect 3 0 61 0;
#X connect 3 1 62 0;
#X connect 4 0 61 0;
#X connect 5 0 4 0;
#X connect 5 1 4 1;
#X connect 6 0 60 0;
#X connect 6 1 60 1;
#X connect 7 0 4 0;
#X connect 8 0 60 0;
#X connect 9 0 14 0;
#X connect 10 0 11 0;
#X connect 10 1 11 1;
#X connect 11 0 15 0;
#X connect 12 0 22 0;
#X connect 12 0 11 0;
#X connect 13 0 9 0;
#X connect 13 0 23 0;
#X connect 14 0 27 0;
#X connect 15 0 28 0;
#X connect 16 0 17 0;
#X connect 16 1 17 1;
#X connect 17 0 21 0;
#X connect 18 0 19 0;
#X connect 18 1 19 1;
#X connect 19 0 20 0;
#X connect 20 0 25 1;
#X connect 21 0 26 1;
#X connect 22 0 9 0;
#X connect 22 1 9 1;
#X connect 23 0 10 0;
#X connect 24 0 25 0;
#X connect 24 1 26 0;
#X connect 25 0 17 0;
#X connect 25 0 33 0;
#X connect 26 0 19 0;
#X connect 27 0 24 0;
#X connect 27 1 18 0;
#X connect 28 0 24 0;
#X connect 28 1 16 0;
#X connect 29 0 34 0;
#X connect 30 0 31 0;
#X connect 30 1 31 1;
#X connect 31 0 35 0;
#X connect 32 0 42 0;
#X connect 32 0 31 0;
#X connect 33 0 29 0;
#X connect 33 0 43 0;
#X connect 34 0 47 0;
#X connect 35 0 48 0;
#X connect 36 0 37 0;
#X connect 36 1 37 1;
#X connect 37 0 41 0;
#X connect 38 0 39 0;
#X connect 38 1 39 1;
#X connect 39 0 40 0;
#X connect 40 0 45 1;
#X connect 41 0 46 1;
#X connect 42 0 29 0;
#X connect 42 1 29 1;
#X connect 43 0 30 0;
#X connect 44 0 45 0;
#X connect 44 1 46 0;
#X connect 45 0 37 0;
#X connect 45 0 49 0;
#X connect 45 0 55 1;
#X connect 46 0 39 0;
#X connect 46 0 50 0;
#X connect 46 0 56 1;
#X connect 47 0 44 0;
#X connect 47 1 38 0;
#X connect 48 0 44 0;
#X connect 48 1 36 0;
#X connect 51 0 58 0;
#X connect 52 0 32 0;
#X connect 53 0 57 0;
#X connect 54 0 57 0;
#X connect 55 0 6 0;
#X connect 56 0 5 0;
#X connect 57 0 52 0;
#X connect 57 1 12 0;
#X connect 58 0 55 0;
#X connect 58 1 56 0;
#X connect 58 2 53 0;
#X connect 58 3 54 0;
#X connect 59 0 8 0;
#X connect 60 0 3 0;
#X connect 61 0 63 0;
#X connect 62 0 64 0;
#X connect 63 0 65 0;
#X connect 64 0 63 0;
#X connect 64 1 63 1;
#X connect 65 0 13 0;
#X connect 66 0 88 0;
#X connect 66 1 89 0;
#X connect 67 0 88 0;
#X connect 68 0 67 0;
#X connect 68 1 67 1;
#X connect 69 0 87 0;
#X connect 69 1 87 1;
#X connect 70 0 67 0;
#X connect 71 0 87 0;
#X connect 72 0 97 0;
#X connect 73 0 95 0;
#X connect 74 0 102 0;
#X connect 75 0 100 0;
#X connect 78 0 85 0;
#X connect 79 0 74 0;
#X connect 80 0 84 0;
#X connect 81 0 84 0;
#X connect 82 0 69 0;
#X connect 83 0 68 0;
#X connect 84 0 79 0;
#X connect 84 1 72 0;
#X connect 85 0 82 0;
#X connect 85 1 83 0;
#X connect 85 2 80 0;
#X connect 85 3 81 0;
#X connect 86 0 71 0;
#X connect 87 0 66 0;
#X connect 88 0 90 0;
#X connect 89 0 91 0;
#X connect 90 0 92 0;
#X connect 91 0 90 0;
#X connect 91 1 90 1;
#X connect 92 0 73 0;
#X connect 93 0 94 1;
#X connect 94 0 75 0;
#X connect 95 0 94 0;
#X connect 95 1 96 0;
#X connect 96 0 93 0;
#X connect 97 0 94 0;
#X connect 97 1 96 0;
#X connect 97 2 93 1;
#X connect 98 0 99 1;
#X connect 99 0 103 0;
#X connect 99 0 76 0;
#X connect 99 0 82 1;
#X connect 100 0 99 0;
#X connect 100 1 101 0;
#X connect 101 0 98 0;
#X connect 102 0 99 0;
#X connect 102 1 101 0;
#X connect 102 2 98 1;
#X connect 103 0 77 0;
#X connect 103 0 83 1;
#X connect 104 0 105 0;
#X connect 105 0 106 0;
#X connect 106 0 60 0;
#X connect 106 1 6 0;
#X connect 107 0 108 0;
#X connect 108 0 109 0;
#X connect 109 0 87 0;
#X connect 109 1 69 0;
