#N canvas 2073 491 634 344 10;
#X obj 344 92 tgl 20 0 empty empty SET 22 7 0 12 -4034 -1 -1 0 1;
#X obj 282 92 tgl 20 0 empty empty RESET 22 7 0 12 -4034 -1 -1 0 1
;
#X msg 282 174 0;
#X msg 344 174 1;
#X obj 267 251 tgl 20 0 empty empty Q 22 7 0 12 -260097 -1 -1 0 1;
#X obj 282 142 sel 1;
#X obj 344 141 sel 1;
#X obj 232 91 bng 20 250 50 0 empty empty CLK 22 7 0 12 -204786 -1
-1;
#X obj 267 204 f;
#X obj 130 90 tgl 20 0 empty empty SET 22 7 0 12 -4034 -1 -1 0 1;
#X obj 62 90 tgl 20 0 empty empty RESET 22 7 0 12 -4034 -1 -1 0 1;
#X msg 61 187 0;
#X msg 131 187 1;
#X obj 97 252 tgl 20 0 empty empty Q 22 7 0 12 -260097 -1 -1 0 1;
#X obj 61 155 sel 1;
#X obj 131 154 sel 1;
#X obj 97 219 f;
#X obj 62 127 t b f;
#X obj 130 124 t b f;
#X obj 525 96 tgl 20 0 empty empty SET 22 7 0 12 -4034 -1 -1 0 1;
#X obj 457 95 tgl 20 0 empty empty RESET 22 7 0 12 -4034 -1 -1 0 1
;
#X msg 457 177 0;
#X msg 525 178 1;
#X obj 457 218 tgl 20 0 empty empty Q 22 7 0 12 -260097 -1 -1 0 1;
#X obj 457 145 sel 1;
#X obj 525 145 sel 1;
#X text 92 55 <Real>;
#X text 253 55 <Real with Clock>;
#X text 488 56 <Simple>;
#X text 14 9 SR flip-flop;
#X connect 0 0 6 0;
#X connect 1 0 5 0;
#X connect 2 0 8 1;
#X connect 3 0 8 1;
#X connect 5 0 2 0;
#X connect 6 0 3 0;
#X connect 7 0 8 0;
#X connect 8 0 4 0;
#X connect 9 0 18 0;
#X connect 10 0 17 0;
#X connect 11 0 16 1;
#X connect 12 0 16 1;
#X connect 14 0 11 0;
#X connect 15 0 12 0;
#X connect 16 0 13 0;
#X connect 17 0 16 0;
#X connect 17 1 14 0;
#X connect 18 0 16 0;
#X connect 18 1 15 0;
#X connect 19 0 25 0;
#X connect 20 0 24 0;
#X connect 21 0 23 0;
#X connect 22 0 23 0;
#X connect 24 0 21 0;
#X connect 25 0 22 0;
