#N canvas 869 232 589 394 10;
#N canvas 836 649 450 300 attack 0;
#X obj 189 195 *~;
#X obj 248 183 vline~;
#X obj 160 94 noise~;
#X msg 248 110 1 10 \, 0 50 50;
#X obj 247 45 bng 15 250 50 0 empty empty empty 17 7 0 10 -262144 -1
-1;
#X obj 185 45 inlet;
#X obj 167 244 outlet~;
#X obj 166 125 *~ 0.4;
#X floatatom 93 171 5 0 0 0 - - -;
#X floatatom 123 151 5 0 0 0 - - -;
#X obj 185 162 bp~ 500;
#X obj 65 104 loadbang;
#X connect 0 0 6 0;
#X connect 1 0 0 1;
#X connect 2 0 7 0;
#X connect 3 0 1 0;
#X connect 4 0 3 0;
#X connect 5 0 3 0;
#X connect 7 0 10 0;
#X connect 8 0 10 1;
#X connect 9 0 10 2;
#X connect 10 0 0 0;
#X connect 11 0 8 0;
#X connect 11 0 9 0;
#X restore 215 268 pd attack;
#N canvas 1188 355 452 347 kick 0;
#X obj 199 264 *~;
#X obj 258 252 vline~;
#X obj 255 19 bng 15 250 50 0 empty empty empty 17 7 0 10 -262144 -1
-1;
#X obj 199 12 inlet;
#X obj 177 313 outlet~;
#X obj 174 167 osc~;
#X obj 116 139 vline~;
#X obj 195 231 hip~ 10;
#X msg 258 179 1 5 \, 0 200 50;
#X msg 83 92 250 1 \, 0 150 20;
#X obj 176 194 *~ 0.8;
#X connect 0 0 4 0;
#X connect 1 0 0 1;
#X connect 2 0 9 0;
#X connect 2 0 8 0;
#X connect 3 0 8 0;
#X connect 3 0 9 0;
#X connect 5 0 10 0;
#X connect 6 0 5 0;
#X connect 7 0 0 0;
#X connect 8 0 1 0;
#X connect 9 0 6 0;
#X connect 10 0 7 0;
#X restore 88 163 pd kick;
#X obj 188 24 sflnom;
#X obj 88 116 sel 0 4 8 12;
#X obj 295 138 abcautoqnt;
#X obj 95 15 loadbang;
#X obj 137 318 output~;
#X text 24 336 increase volume>>;
#X text 174 201 beat it repeatedly >>;
#X text 411 3 http://tkrkapps.blogspot.jp;
#X connect 0 0 6 1;
#X connect 0 0 6 0;
#X connect 1 0 6 0;
#X connect 1 0 6 1;
#X connect 2 0 3 0;
#X connect 2 0 4 1;
#X connect 3 0 1 0;
#X connect 3 1 1 0;
#X connect 3 2 1 0;
#X connect 3 3 1 0;
#X connect 4 0 0 0;
#X connect 5 0 2 0;
