#N canvas 0 22 661 466 10;
#X obj 510 133 vsl 15 100 0 100 0 0 empty empty Ignore_lag[ms] -40
-9 0 10 -261234 -1 -1 1980 1;
#X floatatom 530 219 5 0 0 0 - - -;
#X obj 152 282 sel 1;
#X floatatom 153 318 5 0 0 0 - - -;
#X msg 151 143 1;
#X obj 451 155 bng 30 250 50 0 empty empty empty 17 7 0 10 -260097
-1 -1;
#X obj 276 93 bng 15 250 50 0 empty empty empty 17 7 0 10 -262144 -1
-1;
#X msg 297 174 0;
#X obj 152 244 * 0;
#X obj 235 171 * 1;
#X msg 226 110 1;
#X obj 110 190 * 0;
#X obj 100 214 sel 1;
#X obj 151 164 t f f b;
#X obj 271 129 delay 20;
#X obj 230 75 bang;
#X obj 359 66 loadbang;
#X msg 360 93 20;
#X obj 227 138 t f f;
#X obj 448 47 inlet;
#X obj 504 24 inlet;
#X obj 554 49 inlet;
#X obj 282 336 outlet;
#X text 483 4 reference beat;
#X text 433 29 your bang;
#X text 543 32 lag margin;
#X text 263 316 quantized bang;
#X connect 0 0 1 0;
#X connect 1 0 14 1;
#X connect 2 0 3 0;
#X connect 2 0 22 0;
#X connect 3 0 8 1;
#X connect 4 0 13 0;
#X connect 5 0 4 0;
#X connect 6 0 14 0;
#X connect 7 0 9 1;
#X connect 7 0 8 0;
#X connect 8 0 2 0;
#X connect 9 0 8 0;
#X connect 9 0 11 1;
#X connect 10 0 18 0;
#X connect 11 0 12 0;
#X connect 12 0 8 0;
#X connect 13 0 11 0;
#X connect 13 1 8 1;
#X connect 13 2 9 0;
#X connect 14 0 7 0;
#X connect 15 0 10 0;
#X connect 15 0 14 0;
#X connect 16 0 17 0;
#X connect 17 0 0 0;
#X connect 18 0 9 0;
#X connect 18 1 9 1;
#X connect 19 0 5 0;
#X connect 20 0 15 0;
#X connect 21 0 0 0;
#X coords 0 -1 1 1 128 140 1 440 100;
