#N canvas 1210 258 775 737 12;
#X obj 80 155 hradio 15 1 0 16 empty \$0-positionr empty 0 -6 0 8 -261681
-258699 -1 12;
#X obj 57 104 tgl 15 0 \$0-tgl empty on/off 19 11 0 9 -262131 -90881
-90881 0 1;
#X obj 158 105 nbx 5 14 10 511 0 0 \$0-tempos \$0-tempor bpm 52 10
0 9 -260818 -90881 -90881 120 256;
#X obj 112 311 r \$0-tempos;
#X obj 79 471 metro;
#X obj 137 554 + 1;
#X obj 192 581 0;
#X obj 77 646 s \$0-positionr;
#X obj 116 37 loadbang;
#X obj 55 680 outlet;
#X msg 122 66 120;
#X floatatom 86 396 5 0 0 0 - - -;
#X msg 541 389 48;
#X obj 134 395 s \$0-msec_p_beat;
#X obj 293 382 r \$0-msec_p_beat;
#X floatatom 359 471 5 0 0 0 - - -;
#X obj 537 361 loadbang;
#X text 455 329 1beat=48tics 1tic is msec_p_beat/48[ms];
#X obj 45 296 r \$0-tgl;
#X floatatom 301 123 5 0 47 1 - - -;
#X text 307 286 bpm->msec;
#X obj 418 364 r \$0-shuffletics;
#X obj 90 516 delay;
#X obj 90 426 outlet;
#X obj 377 445 *;
#X obj 447 425 /;
#X text 230 269 60*1000/4;
#X obj 179 226 loadbang;
#X obj 127 339 /;
#X obj 152 370 /;
#X msg 200 348 1 \$1;
#X obj 127 260 t b b;
#X obj 273 122 knob 20 20 0 47 0 0 \$0-shuffletics empty Shuffle 0
-8 0 10 -262144 -1 -1 0 1;
#X floatatom 155 131 3 1 4 1 /4_measure - #0-measure;
#X obj 440 395 int;
#X msg 178 71 4;
#X msg 184 269 15000;
#X obj 217 607 r \$0-measure;
#X obj 216 637 * 4;
#X obj 50 520 bng 15 250 50 0 empty empty empty 17 7 0 10 -262144 -1
-1;
#X obj 128 600 >;
#X obj 110 624 sel 1;
#X obj 178 617 f 15;
#X obj 214 663 - 1;
#X obj 18 68 inlet;
#X obj 69 67 inlet;
#X obj 439 125 inlet;
#X msg 23 239 0;
#X obj 58 127 bng 15 250 50 0 empty empty Reset 17 10 0 10 -262144
-258113 -1;
#X obj 364 527 mod 2;
#X obj 321 608 f 0;
#X msg 357 583 0;
#X obj 398 584 f 0;
#X obj 365 556 sel 1 0;
#X obj 16 268 t f f;
#X obj 214 482 t f f f;
#X obj 79 561 f 0;
#X obj 209 692 t b f;
#X connect 3 0 28 0;
#X connect 4 0 22 0;
#X connect 4 0 50 0;
#X connect 5 0 55 0;
#X connect 6 0 56 1;
#X connect 8 0 10 0;
#X connect 8 0 35 0;
#X connect 10 0 2 0;
#X connect 11 0 23 0;
#X connect 12 0 25 1;
#X connect 14 0 4 1;
#X connect 14 0 25 0;
#X connect 15 0 52 1;
#X connect 16 0 12 0;
#X connect 18 0 4 0;
#X connect 21 0 34 0;
#X connect 22 0 56 0;
#X connect 24 0 15 0;
#X connect 25 0 24 1;
#X connect 27 0 31 0;
#X connect 28 0 30 0;
#X connect 29 0 11 0;
#X connect 29 0 13 0;
#X connect 30 0 29 0;
#X connect 31 0 28 0;
#X connect 31 1 36 0;
#X connect 34 0 24 0;
#X connect 34 0 19 0;
#X connect 35 0 33 0;
#X connect 36 0 28 1;
#X connect 37 0 38 0;
#X connect 38 0 43 0;
#X connect 39 0 56 0;
#X connect 40 0 41 0;
#X connect 41 0 6 0;
#X connect 41 0 42 0;
#X connect 42 0 40 1;
#X connect 43 0 57 0;
#X connect 44 0 1 0;
#X connect 45 0 2 0;
#X connect 46 0 48 0;
#X connect 47 0 54 0;
#X connect 48 0 47 0;
#X connect 49 0 53 0;
#X connect 50 0 22 1;
#X connect 51 0 50 1;
#X connect 52 0 50 1;
#X connect 53 0 51 0;
#X connect 53 1 52 0;
#X connect 54 0 56 1;
#X connect 54 1 22 1;
#X connect 55 0 49 0;
#X connect 55 1 40 0;
#X connect 55 2 56 1;
#X connect 56 0 5 0;
#X connect 56 0 7 0;
#X connect 56 0 9 0;
#X connect 57 0 42 0;
#X connect 57 1 42 1;
#X coords 0 -1 1 1 300 80 2 50 98;
